<svg width="191" height="16" xmlns="http://www.w3.org/2000/svg" style="vector-effect: non-scaling-stroke;">
 <g>
  <title>Layer 1</title>
  <path id="svg_11" fill-rule="evenodd" fill="#000000" d="m12.58003,1.99754a1.41659,1.41659 0 0 0 -1.06244,-0.47456l-8.74037,0a1.41659,1.41659 0 0 0 -1.41659,1.41659l0,10.02238a1.41659,1.41659 0 0 0 1.41659,1.41659l8.75099,0a1.41659,1.41659 0 0 0 1.06244,-0.47456l5.22014,-5.93906l-5.23076,-5.96739zm12.31018,-0.47456l8.75099,0a1.41659,1.41659 0 0 1 1.38826,1.41659l0,10.02238a1.41659,1.41659 0 0 1 -1.41659,1.41659l-8.72975,0a1.41659,1.41659 0 0 1 -1.06244,-0.47456l-5.20597,-5.97093l5.22368,-5.93552a1.41659,1.41659 0 0 1 1.06244,-0.47456l-0.01062,0zm-11.40002,0.5808l4.71725,5.36534l4.71725,-5.36534l-9.4345,0zm-1.06244,9.93385a5.80094,5.80094 0 1 1 1.68574,-4.0727a5.80094,5.80094 0 0 1 -1.68574,4.0727zm16.18456,1.69991a5.80803,5.80803 0 1 0 -4.10103,-1.69991a5.80448,5.80448 0 0 0 4.10103,1.69991zm-20.28205,-8.12061a2.33383,2.33383 0 0 1 0.49581,0.05312a3.15192,3.15192 0 0 1 1.14744,-2.65611a5.25201,5.25201 0 0 0 -2.86506,-0.11687a2.61715,2.61715 0 0 0 0.82871,2.75173a2.4507,2.4507 0 0 1 0.3931,-0.03187zm20.28913,0a2.33383,2.33383 0 0 1 0.49581,0.05312a3.15192,3.15192 0 0 1 1.14744,-2.65611a5.24139,5.24139 0 0 0 -2.86151,-0.11687a2.61007,2.61007 0 0 0 0.82516,2.75173a2.4507,2.4507 0 0 1 0.3931,-0.03187zm-21.33387,0.25144a2.38342,2.38342 0 0 0 -0.7083,0.53476a2.62424,2.62424 0 0 1 -2.42237,-1.55825a5.1741,5.1741 0 0 1 2.25592,-1.72824a3.13775,3.13775 0 0 0 0.85704,2.75173l0.01771,0zm19.59854,0.53476a2.36571,2.36571 0 0 1 0.7083,-0.53476a3.13775,3.13775 0 0 1 -0.85704,-2.75173a5.1741,5.1741 0 0 0 -2.25592,1.72824a2.62778,2.62778 0 0 0 2.40466,1.55825zm4.03729,-3.10942a2.5959,2.5959 0 0 0 -1.17577,2.61715a2.26655,2.26655 0 0 1 0.7083,0.59851a3.14129,3.14129 0 0 1 2.60653,-1.26431a5.27326,5.27326 0 0 0 -2.12489,-1.95135l-0.01417,0zm-21.46844,2.62069a2.348,2.348 0 0 1 0.7083,0.59851a3.13067,3.13067 0 0 1 2.60299,-1.26431a5.21306,5.21306 0 0 0 -2.12489,-1.9549a2.62424,2.62424 0 0 0 -1.17577,2.62069l-0.01062,0zm-3.43878,1.93011a2.25238,2.25238 0 0 1 0.20186,-0.86058a3.13775,3.13775 0 0 1 -2.42945,-1.56533a5.15639,5.15639 0 0 0 -0.63038,2.51445l0,0.25499a2.62069,2.62069 0 0 0 2.86506,-0.35415l-0.00708,0.01062zm20.28913,0a2.25238,2.25238 0 0 1 0.20186,-0.86058a3.13775,3.13775 0 0 1 -2.42945,-1.56533a5.14577,5.14577 0 0 0 -0.64455,2.50028l0,0.25499a2.5959,2.5959 0 0 0 2.86506,-0.35415l0.00708,0.02479zm-13.23096,-1.96198l0,-0.03187a5.20243,5.20243 0 0 1 0.4356,2.08239a5.59554,5.59554 0 0 1 -0.06729,0.84287a3.1165,3.1165 0 0 0 -2.80131,-0.74017a0.49935,0.49935 0 0 0 0,-0.1027a2.29842,2.29842 0 0 0 -0.15937,-0.84287a2.59945,2.59945 0 0 1 2.58528,-1.20764l0.00708,0zm17.70739,1.20764a2.36925,2.36925 0 0 1 0.15583,0.84287a0.49935,0.49935 0 0 1 0,0.1027a3.1165,3.1165 0 0 1 2.80131,0.74017a5.59554,5.59554 0 0 0 0.06729,-0.84287a5.13869,5.13869 0 0 0 -0.44268,-2.08239l0,0.03187a2.59236,2.59236 0 0 0 -2.58174,1.20764zm-22.44943,-0.85704a1.70345,1.70345 0 1 0 1.70345,1.70345l0,0a1.70699,1.70699 0 0 0 -1.70345,-1.70345zm18.58568,1.69991a1.70345,1.70345 0 1 0 1.70699,-1.69991l0,0a1.70699,1.70699 0 0 0 -1.70699,1.69991zm-3.99125,5.83282l-4.71725,-5.3618l-4.71725,5.3618l9.4345,0zm-16.83265,-5.23076a2.29842,2.29842 0 0 0 0.40373,0.81808a2.62424,2.62424 0 0 1 -1.99739,2.08593a5.25201,5.25201 0 0 1 -1.26785,-2.53924a3.12713,3.12713 0 0 0 2.86151,-0.35415l0,-0.01062zm20.68932,0.81808a2.27009,2.27009 0 0 1 -0.40373,-0.81808a3.10588,3.10588 0 0 1 -2.83318,0.35415a5.18118,5.18118 0 0 0 1.23952,2.54986a2.61007,2.61007 0 0 0 1.99739,-2.07885l0,-0.00708zm-16.26247,-0.65872a2.35508,2.35508 0 0 1 -0.50643,0.83579a3.12713,3.12713 0 0 1 1.66449,2.36571a5.20952,5.20952 0 0 0 1.63616,-2.51445l-0.06375,0.06021a2.58882,2.58882 0 0 0 -2.73048,-0.74725zm20.29267,0a2.36217,2.36217 0 0 1 -0.50997,0.83579a3.12713,3.12713 0 0 1 1.66449,2.36571a5.20952,5.20952 0 0 0 1.63616,-2.51445l-0.06375,0.06021a2.58174,2.58174 0 0 0 -2.72694,-0.74725zm-22.94524,1.51221a2.17801,2.17801 0 0 1 -0.8712,-0.3754a3.13421,3.13421 0 0 1 -1.98323,2.08239a5.12806,5.12806 0 0 0 2.63486,1.16161l-0.02125,0a2.59236,2.59236 0 0 0 0.24082,-2.85797l0,-0.01062zm20.28913,0a2.17801,2.17801 0 0 1 -0.8712,-0.3754a3.13421,3.13421 0 0 1 -1.98323,2.08239a5.1316,5.1316 0 0 0 2.64548,1.16161l0,0a2.59236,2.59236 0 0 0 0.24082,-2.85797l-0.03187,-0.01062zm-19.59854,0.03541a2.36571,2.36571 0 0 0 0.92433,-0.29748a2.61361,2.61361 0 0 1 1.61846,2.32675l0.07791,0a5.12806,5.12806 0 0 1 -2.83318,0.8535a3.15192,3.15192 0 0 0 0.22311,-2.87922l-0.01062,-0.00354zm21.20992,-0.29748a2.36571,2.36571 0 0 1 -0.92433,0.29748a3.15192,3.15192 0 0 1 -0.22311,2.87922a5.16702,5.16702 0 0 0 2.83318,-0.8535l-0.07791,0a2.59236,2.59236 0 0 0 -1.61846,-2.32675l0.01062,0.00354zm-26.68504,5.01473l4.91203,0l0,0.76142l-4.91203,0l0,-0.76142zm6.72881,0l1.44846,0l0,0.76142l-1.44492,0l-0.00354,-0.76142z" class="cls-2"/>
  <g id="svg_12">
   <path id="svg_1" fill="#000000" d="m44.96506,13.92946a3.6124,3.6124 0 0 0 3.62209,-3.60272l0,0l-2.39213,0a1.20091,1.20091 0 0 1 -1.19122,1.21059l-4.84236,0a1.21059,1.21059 0 0 1 -1.22996,-1.22512l0,0l0,-4.62446a1.22028,1.22028 0 0 1 1.20575,-1.20575l4.84236,0a1.21059,1.21059 0 0 1 1.21543,1.20575l2.42118,0a3.6124,3.6124 0 0 0 -3.6124,-3.60272l-4.84236,0a3.6124,3.6124 0 0 0 -3.65114,3.58335l0,4.63898a3.6124,3.6124 0 0 0 3.6124,3.62209l4.84236,0z" class="cls-1"/>
   <path id="svg_2" fill="#000000" d="m63.50646,13.92946l-4.13538,-4.7213l0.56656,0a3.56398,3.56398 0 1 0 0.26149,-7.12311a2.35339,2.35339 0 0 0 -0.26149,0l-8.50803,0l0,11.84442l2.42118,0l0,-4.7213l2.30981,0l4.13538,4.7213l3.21049,0zm-3.56882,-7.13764l-6.09169,0l0,-2.30981l6.09169,0a1.15732,1.15732 0 1 1 0.15011,2.30981l-0.15011,0z" class="cls-1"/>
   <path id="svg_3" fill="#000000" d="m72.17429,13.92946l0,-4.98763l4.84236,-6.87131l-2.95868,0l-3.08943,4.40171l-3.09427,-4.38718l-2.94416,0l4.82783,6.85678l0,4.98763l2.41634,0z" class="cls-1"/>
   <path id="svg_4" fill="#000000" d="m81.90744,13.92946l0,-4.7213l6.09169,0a3.56398,3.56398 0 1 0 0.26149,-7.12311a2.35339,2.35339 0 0 0 -0.26149,0l-8.50803,0l0,11.84442l2.41634,0zm6.09169,-7.13764l-6.09169,0l0,-2.30981l6.09169,0a1.15732,1.15732 0 0 1 0.15011,2.30981l-0.15011,0z" class="cls-1"/>
   <path id="svg_5" fill="#000000" d="m101.30109,13.92946l0,-9.44745l4.84236,0l0,-2.39697l-12.1059,0l0,2.39697l4.84236,0l0,9.44745l2.42118,0z" class="cls-1"/>
   <path id="svg_6" fill="#000000" d="m117.07267,13.92946a3.6124,3.6124 0 0 0 3.62693,-3.60756l0,-4.63414a3.6124,3.6124 0 0 0 -3.62209,-3.60272l-4.84236,0a3.6124,3.6124 0 0 0 -3.62209,3.59303l0,4.6293a3.6124,3.6124 0 0 0 3.60272,3.62209l4.84236,0l0.01453,0zm0,-2.42118l-4.84236,0a1.21059,1.21059 0 0 1 -1.20575,-1.21059l0,-4.60993a1.22028,1.22028 0 0 1 1.20575,-1.20575l4.84236,0a1.21059,1.21059 0 0 1 1.21059,1.20575l0,4.61961a1.20091,1.20091 0 0 1 -1.19122,1.21059l0,0l-0.01937,-0.00968z" class="cls-1"/>
   <path id="svg_7" fill="#000000" d="m139.80755,13.92946l0,-9.44745l4.84236,0l0,-2.39697l-12.1059,0l0,2.39697l4.84236,0l0,9.44745l2.42118,0z" class="cls-1"/>
   <path id="svg_8" fill="#000000" d="m159.55955,13.92946l0,-2.42118l-9.68472,0l0,-2.30012l7.26354,0l0,-2.42118l-7.26354,0l0,-2.30496l9.68472,0l0,-2.39697l-12.07685,0l0,11.84442l12.07685,0z" class="cls-1"/>
   <path id="svg_9" fill="#000000" d="m170.50329,13.92946a3.6124,3.6124 0 0 0 3.62209,-3.6124l0,0l-2.42118,0a1.20091,1.20091 0 0 1 -1.19122,1.21059l-4.84236,0a1.21543,1.21543 0 0 1 -1.21059,-1.21059l0,-4.6293a1.22512,1.22512 0 0 1 1.21059,-1.20575l4.84236,0a1.21543,1.21543 0 0 1 1.20575,1.20575l2.42118,0a3.6124,3.6124 0 0 0 -3.62209,-3.60272l-4.84236,0a3.6124,3.6124 0 0 0 -3.62209,3.60272l0,0l0,4.61961a3.6124,3.6124 0 0 0 3.6124,3.62209l4.84236,0l-0.00484,0z" class="cls-1"/>
   <path id="svg_10" fill="#000000" d="m189.04469,13.92946l0,-11.84442l-2.42118,0l0,4.70678l-7.26354,0l0,-4.70678l-2.42118,0l0,11.84442l2.42118,0l0,-4.7213l7.26354,0l0,4.7213l2.42118,0z" class="cls-1"/>
  </g>
 </g>
</svg>