<svg width="75" height="32" xmlns="http://www.w3.org/2000/svg">
 <g>
  <title>Layer 1</title>
  <path class="cls-2" d="m25.2583,2.41418a3.08517,2.98571 0 0 0 -2.31388,-1.00022l-19.03555,0a3.08517,2.98571 0 0 0 -3.08517,2.98571l0,21.12389a3.08517,2.98571 0 0 0 3.08517,2.98571l19.05868,0a3.08517,2.98571 0 0 0 2.31388,-1.00022l11.36888,-12.51759l-11.39201,-12.5773l0,0.00002zm26.8102,-1.00022l19.05868,0a3.08517,2.98571 0 0 1 3.02348,2.98571l0,21.12389a3.08517,2.98571 0 0 1 -3.08517,2.98571l-19.01242,0a3.08517,2.98571 0 0 1 -2.31388,-1.00022l-11.33802,-12.58476l11.37659,-12.51013a3.08517,2.98571 0 0 1 2.31388,-1.00022l-0.02313,0l0,0.00002zm-24.82797,1.22414l10.27364,11.30838l10.27364,-11.30838l-20.54729,0zm-2.31388,20.9373a12.6338,12.22648 0 1 1 3.67135,-8.58392a12.6338,12.22648 0 0 1 -3.67135,8.58392zm35.24816,3.58285a12.64924,12.24142 0 1 0 -8.93158,-3.58285a12.64151,12.23394 0 0 0 8.93158,3.58285zm-44.17204,-17.11558a5.08282,4.91895 0 0 1 1.07982,0.11196a6.86453,6.64321 0 0 1 2.499,-5.59821a11.43829,11.06952 0 0 0 -6.23978,-0.24632a5.69986,5.51609 0 0 0 1.80484,5.79974a5.33735,5.16527 0 0 1 0.85613,-0.06717zm44.18746,0a5.08282,4.91895 0 0 1 1.07982,0.11196a6.86453,6.64321 0 0 1 2.499,-5.59821a11.41516,11.04713 0 0 0 -6.23205,-0.24632a5.68444,5.50117 0 0 0 1.79711,5.79974a5.33735,5.16527 0 0 1 0.85613,-0.06717zm-46.46278,0.52995a5.19082,5.02347 0 0 0 -1.5426,1.1271a5.7153,5.53104 0 0 1 -5.27565,-3.28428a11.26861,10.90531 0 0 1 4.91314,-3.64256a6.83367,6.61335 0 0 0 1.86654,5.79974l0.03857,0zm42.68343,1.1271a5.15225,4.98614 0 0 1 1.5426,-1.1271a6.83367,6.61335 0 0 1 -1.86654,-5.79974a11.26861,10.90531 0 0 0 -4.91314,3.64256a5.72301,5.5385 0 0 0 5.23708,3.28428zm8.79277,-6.55364a5.65358,5.47131 0 0 0 -2.5607,5.51609a4.93629,4.77714 0 0 1 1.5426,1.26146a6.84138,6.62081 0 0 1 5.67673,-2.66475a11.48457,11.1143 0 0 0 -4.62777,-4.11281l-0.03086,0zm-46.75586,5.52356a5.11368,4.94881 0 0 1 1.5426,1.26146a6.81825,6.59843 0 0 1 5.66902,-2.66475a11.35346,10.98742 0 0 0 -4.62777,-4.12029a5.7153,5.53104 0 0 0 -2.5607,5.52356l-0.02313,0l-0.00002,0.00002zm-7.48928,4.06804a4.90543,4.74728 0 0 1 0.43963,-1.81382a6.83367,6.61335 0 0 1 -5.29107,-3.2992a11.23004,10.86798 0 0 0 -1.3729,5.29964l0,0.53744a5.70757,5.52356 0 0 0 6.23978,-0.74643l-0.01542,0.02238l-0.00002,0zm44.18746,0a4.90543,4.74728 0 0 1 0.43963,-1.81382a6.83367,6.61335 0 0 1 -5.29107,-3.2992a11.20691,10.8456 0 0 0 -1.40376,5.26977l0,0.53744a5.65358,5.47131 0 0 0 6.23978,-0.74643l0.01542,0.05225zm-28.81555,-4.13521l0,-0.06717a11.33031,10.96502 0 0 1 0.94869,4.389a12.18646,11.79356 0 0 1 -0.14655,1.77649a6.78739,6.56856 0 0 0 -6.10094,-1.56004a1.08753,1.05247 0 0 0 0,-0.21646a5.0057,4.84432 0 0 0 -0.34709,-1.77649a5.66131,5.47879 0 0 1 5.63045,-2.54531l0.01542,0l0.00002,-0.00002zm38.56471,2.54531a5.15996,4.9936 0 0 1 0.33938,1.77649a1.08753,1.05247 0 0 1 0,0.21646a6.78739,6.56856 0 0 1 6.10094,1.56004a12.18646,11.79356 0 0 0 0.14655,-1.77649a11.19149,10.83067 0 0 0 -0.96411,-4.389l0,0.06717a5.64587,5.46385 0 0 0 -5.62274,2.54531l-0.00002,0.00002zm-48.89235,-1.80636a3.70992,3.59031 0 1 0 3.70992,3.59031l0,0a3.71763,3.59778 0 0 0 -3.70992,-3.59031zm40.47753,3.58285a3.70992,3.59031 0 1 0 3.71763,-3.58285l0,0a3.71763,3.59778 0 0 0 -3.71763,3.58285zm-8.6925,12.29367l-10.27364,-11.30092l-10.27364,11.30092l20.54729,0zm-36.65963,-11.02473a5.0057,4.84432 0 0 0 0.87928,1.72424a5.7153,5.53104 0 0 1 -4.35009,4.39646a11.43829,11.06952 0 0 1 -2.76124,-5.35189a6.81054,6.59097 0 0 0 6.23205,-0.74643l0,-0.02238zm45.05902,1.72424a4.944,4.78461 0 0 1 -0.87928,-1.72424a6.76426,6.54618 0 0 1 -6.17035,0.74643a11.28403,10.92023 0 0 0 2.69954,5.37427a5.68444,5.50117 0 0 0 4.35009,-4.38153l0,-0.01492zm-35.41784,-1.38837a5.1291,4.96374 0 0 1 -1.10295,1.76157a6.81054,6.59097 0 0 1 3.62507,4.98614a11.34575,10.97996 0 0 0 3.56337,-5.29964l-0.13884,0.1269a5.63816,5.45638 0 0 0 -5.94668,-1.57496l0.00002,-0.00002zm44.19517,0a5.14454,4.97868 0 0 1 -1.11066,1.76157a6.81054,6.59097 0 0 1 3.62507,4.98614a11.34575,10.97996 0 0 0 3.56337,-5.29964l-0.13884,0.1269a5.62274,5.44146 0 0 0 -5.93897,-1.57496l0.00002,-0.00002zm-49.97217,3.18724a4.74346,4.59053 0 0 1 -1.89738,-0.79122a6.82596,6.60589 0 0 1 -4.31925,4.389a11.16834,10.80827 0 0 0 5.73843,2.44829l-0.04628,0a5.64587,5.46385 0 0 0 0.52448,-6.02366l0,-0.02238l0,-0.00002zm44.18746,0a4.74346,4.59053 0 0 1 -1.89738,-0.79122a6.82596,6.60589 0 0 1 -4.31925,4.389a11.17605,10.81573 0 0 0 5.76156,2.44829l0,0a5.64587,5.46385 0 0 0 0.52448,-6.02366l-0.06941,-0.02238l0,-0.00002zm-42.68343,0.07463a5.15225,4.98614 0 0 0 2.01309,-0.62699a5.69215,5.50863 0 0 1 3.52482,4.90403l0.16968,0a11.16834,10.80827 0 0 1 -6.17035,1.7989a6.86453,6.64321 0 0 0 0.48591,-6.06845l-0.02313,-0.00746l-0.00002,-0.00002zm46.19283,-0.62699a5.15225,4.98614 0 0 1 -2.01309,0.62699a6.86453,6.64321 0 0 1 -0.48591,6.06845a11.25319,10.89038 0 0 0 6.17035,-1.7989l-0.16968,0a5.64587,5.46385 0 0 0 -3.52482,-4.90403l0.02313,0.00746l0.00002,0.00002zm-58.11703,10.56941l10.69785,0l0,1.60482l-10.69785,0l0,-1.60482zm14.6546,0l3.15458,0l0,1.60482l-3.14687,0l-0.00771,-1.60482z" fill="#6184ff" fill-rule="evenodd" id="svg_11"/>
 </g>

</svg>